PathFileType	4	(X/Y/Z)	C:\Users\86182\Documents\cortex\Trimmed_M4_H11.trc
DataRate	CameraRate	NumFrames	NumMarkers	Units	OrigDataRate	OrigDataStartFrame	OrigNumFrames
100.00	100.00	       115	2	mm	100.00	1	       901
Frame#	Time	gripper			box			
		X1	Y1	Z1	X2	Y2	Z2	

1	0.000	277.10983	150.14352	192.32617	280.32764	146.98550	57.41722	
2	0.010	277.10812	150.14192	192.32764	280.32455	146.98676	57.41126	
3	0.020	277.10699	150.14021	192.32927	280.32126	146.98688	57.40691	
4	0.030	277.10635	150.13895	192.33095	280.31793	146.98587	57.40438	
5	0.040	277.10638	150.13847	192.33234	280.31494	146.98384	57.40393	
6	0.050	277.10703	150.13904	192.33316	280.31256	146.98117	57.40535	
7	0.060	277.10809	150.14066	192.33365	280.31082	146.97844	57.40781	
8	0.070	277.10925	150.14313	192.33411	280.30972	146.97629	57.41022	
9	0.080	277.11023	150.14600	192.33447	280.30960	146.97520	57.41205	
10	0.090	277.11084	150.14885	192.33429	280.31064	146.97530	57.41315	
11	0.100	277.11075	150.15134	192.33315	280.31241	146.97641	57.41322	
12	0.110	277.11002	150.15308	192.33092	280.31427	146.97815	57.41237	
13	0.120	277.10895	150.15378	192.32787	280.31589	146.97997	57.41123	
14	0.130	277.10757	150.15352	192.32466	280.31705	146.98143	57.41034	
15	0.140	277.10583	150.15286	192.32227	280.31769	146.98221	57.41016	
16	0.150	277.10385	150.15222	192.32138	280.31802	146.98212	57.41127	
17	0.160	277.10233	150.15167	192.32211	280.31860	146.98119	57.41408	
18	0.170	277.10190	150.15106	192.32399	280.31979	146.97958	57.41857	
19	0.180	277.10278	150.15054	192.32631	280.32156	146.97762	57.42429	
20	0.190	277.10461	150.15041	192.32851	280.32385	146.97539	57.43102	
21	0.200	277.10660	150.15096	192.33037	280.32651	146.97298	57.43849	
22	0.210	277.10809	150.15224	192.33189	280.32916	146.97078	57.44557	
23	0.220	277.10898	150.15402	192.33305	280.33133	146.96922	57.45090	
24	0.230	277.10928	150.15596	192.33379	280.33282	146.96844	57.45402	
25	0.240	277.10889	150.15782	192.33412	280.33380	146.96820	57.45546	
26	0.250	277.10764	150.15950	192.33437	280.33447	146.96820	57.45596	
27	0.260	277.10562	150.16103	192.33501	280.33511	146.96831	57.45607	
28	0.270	277.10318	150.16235	192.33626	280.33594	146.96837	57.45624	
29	0.280	277.10065	150.16335	192.33784	280.33704	146.96829	57.45677	
30	0.290	277.09839	150.16385	192.33910	280.33829	146.96815	57.45750	
31	0.300	277.09653	150.16391	192.33951	280.33942	146.96808	57.45807	
32	0.310	277.09500	150.16374	192.33894	280.34015	146.96814	57.45834	
33	0.320	277.09381	150.16356	192.33765	280.34039	146.96832	57.45839	
34	0.330	277.09277	150.16339	192.33598	280.34018	146.96854	57.45827	
35	0.340	277.09207	150.16313	192.33408	280.33966	146.96867	57.45805	
36	0.350	277.09189	150.16261	192.33211	280.33893	146.96861	57.45786	
37	0.360	277.09219	150.16208	192.33040	280.33810	146.96835	57.45782	
38	0.370	277.09244	150.16183	192.32928	280.33737	146.96800	57.45799	
39	0.380	277.09213	150.16193	192.32864	280.33688	146.96770	57.45826	
40	0.390	277.09109	150.16205	192.32809	280.33673	146.96765	57.45832	
41	0.400	277.08969	150.16179	192.32733	280.33682	146.96799	57.45799	
42	0.410	277.08887	150.16083	192.32640	280.33704	146.96858	57.45739	
43	0.420	277.08957	150.15909	192.32568	280.33725	146.96922	57.45670	
44	0.430	277.09207	150.15680	192.32552	280.33728	146.96977	57.45599	
45	0.440	277.09589	150.15446	192.32605	280.33719	146.97031	57.45513	
46	0.450	277.10016	150.15260	192.32733	280.33707	146.97093	57.45404	
47	0.460	277.10397	150.15161	192.32919	280.33701	146.97159	57.45291	
48	0.470	277.10672	150.15154	192.33109	280.33713	146.97208	57.45225	
49	0.480	277.10812	150.15216	192.33243	280.33740	146.97223	57.45235	
50	0.490	277.10849	150.15315	192.33324	280.33780	146.97215	57.45293	
51	0.500	277.10855	150.15416	192.33386	280.33817	146.97205	57.45350	
52	0.510	277.10883	150.15489	192.33444	280.33835	146.97189	57.45386	
53	0.520	277.10941	150.15526	192.33493	280.33829	146.97162	57.45405	
54	0.530	277.11008	150.15538	192.33530	280.33807	146.97121	57.45413	
55	0.540	277.11044	150.15546	192.33553	280.33786	146.97070	57.45419	
56	0.550	277.11008	150.15573	192.33577	280.33792	146.97014	57.45447	
57	0.560	277.10861	150.15646	192.33629	280.33832	146.96945	57.45520	
58	0.570	277.10617	150.15768	192.33714	280.33884	146.96867	57.45628	
59	0.580	277.10333	150.15913	192.33809	280.33917	146.96796	57.45734	
60	0.590	277.10107	150.16025	192.33881	280.33899	146.96745	57.45797	
61	0.600	277.10043	150.16049	192.33911	280.33829	146.96732	57.45789	
62	0.610	277.10202	150.15964	192.33905	280.33710	146.96747	57.45713	
63	0.620	277.10556	150.15787	192.33879	280.33557	146.96773	57.45591	
64	0.630	277.10980	150.15564	192.33842	280.33401	146.96800	57.45453	
65	0.640	277.11349	150.15344	192.33783	280.33279	146.96819	57.45334	
66	0.650	277.11600	150.15146	192.33691	280.33209	146.96820	57.45259	
67	0.660	277.11725	150.14973	192.33578	280.33191	146.96806	57.45235	
68	0.670	277.11765	150.14833	192.33484	280.33231	146.96773	57.45267	
69	0.680	277.11765	150.14722	192.33447	280.33313	146.96712	57.45374	
70	0.690	277.11749	150.14633	192.33481	280.33423	146.96623	57.45564	
71	0.700	277.11707	150.14572	192.33585	280.33542	146.96530	57.45809	
72	0.710	277.11594	150.14563	192.33762	280.33652	146.96458	57.46064	
73	0.720	277.11398	150.14630	192.34000	280.33740	146.96423	57.46287	
74	0.730	277.11142	150.14775	192.34248	280.33795	146.96414	57.46458	
75	0.740	277.10883	150.14970	192.34444	280.33817	146.96417	57.46574	
76	0.750	277.10660	150.15181	192.34552	280.33813	146.96425	57.46640	
77	0.760	277.10483	150.15382	192.34575	280.33798	146.96439	57.46661	
78	0.770	277.10376	150.15543	192.34515	280.33780	146.96465	57.46638	
79	0.780	277.10403	150.15610	192.34363	280.33768	146.96519	57.46552	
80	0.790	277.10629	150.15546	192.34108	280.33768	146.96613	57.46389	
81	0.800	277.11020	150.15378	192.33760	280.33783	146.96736	57.46169	
82	0.810	277.11450	150.15187	192.33371	280.33813	146.96870	57.45936	
83	0.820	277.11795	150.15062	192.33005	280.33878	146.96992	57.45736	
84	0.830	277.11972	150.15045	192.32726	280.33990	146.97101	57.45598	
85	0.840	277.11960	150.15129	192.32570	280.34155	146.97197	57.45518	
86	0.850	277.11752	150.15297	192.32532	280.34354	146.97278	57.45480	
87	0.860	277.11343	150.15536	192.32596	280.34525	146.97330	57.45453	
88	0.870	277.10709	150.15854	192.32784	280.34598	146.97322	57.45400	
89	0.880	277.09805	150.16286	192.33165	280.34467	146.97212	57.45294	
90	0.890	277.08572	150.16855	192.33804	280.33990	146.96931	57.45135	
91	0.900	277.06967	150.17523	192.34729	280.33020	146.96416	57.44942	
92	0.910	277.05002	150.18173	192.35931	280.31421	146.95615	57.44751	
93	0.920	277.02716	150.18646	192.37378	280.29095	146.94484	57.44587	
94	0.930	277.00189	150.18814	192.39035	280.26035	146.92976	57.44438	
95	0.940	276.97589	150.18597	192.40880	280.22336	146.91080	57.44262	
96	0.950	276.95218	150.17923	192.42867	280.18246	146.88866	57.44051	
97	0.960	276.93591	150.16704	192.44894	280.14124	146.86513	57.43877	
98	0.970	276.93488	150.14825	192.46799	280.10309	146.84250	57.43879	
99	0.980	276.95969	150.12172	192.48392	280.07007	146.82262	57.44229	
100	0.990	277.02295	150.08652	192.49500	280.04254	146.80661	57.45065	
101	1.000	277.13742	150.04222	192.49989	280.01999	146.79498	57.46457	
102	1.010	277.31189	149.98924	192.49869	280.00113	146.78812	57.48482	
103	1.020	277.54391	149.92966	192.49611	279.98462	146.78639	57.51318	
104	1.030	277.80881	149.86862	192.50681	279.97128	146.78947	57.55324	
105	1.040	278.05539	149.81496	192.55678	279.96643	146.79532	57.61013	
106	1.050	278.22836	149.77750	192.67249	279.98007	146.80049	57.68929	
107	1.060	278.31070	149.75824	192.86195	280.02444	146.80133	57.79481	
108	1.070	278.34256	149.74980	193.10669	280.10922	146.79602	57.92831	
109	1.080	278.38889	149.74153	193.37575	280.23682	146.78566	58.08905	
110	1.090	278.48215	149.72935	193.65146	280.40005	146.77359	58.27590	
111	1.100	278.59656	149.71979	193.94287	280.58133	146.76303	58.49094	
112	1.110	278.67972	149.72311	194.27213	280.74960	146.75674	58.74368	
113	1.120	278.70596	149.74208	194.64851	280.86679	146.75751	59.04819	
114	1.130	278.69272	149.76990	195.05984	280.91913	146.76564	59.40621	
115	1.140	278.66168	149.80038	195.49098	280.93463	146.77705	59.79800	
